<?xml version="1.0" encoding="UTF-8"?>
<!DOCTYPE svg PUBLIC "-//W3C//DTD SVG 1.1//EN" "http://www.w3.org/Graphics/SVG/1.1/DTD/svg11.dtd">
<!-- Creator: CorelDRAW 2018 (64-Bit) -->
<svg xmlns="http://www.w3.org/2000/svg" xml:space="preserve" width="0.666665in" height="0.093748in" version="1.1" style="shape-rendering:geometricPrecision; text-rendering:geometricPrecision; image-rendering:optimizeQuality; fill-rule:evenodd; clip-rule:evenodd"
viewBox="0 0 666.65 93.75"
 xmlns:xlink="http://www.w3.org/1999/xlink">
 <defs>
  <style type="text/css">
   <![CDATA[
    .fil1 {fill:#FFB800;fill-rule:nonzero}
    .fil0 {fill:white;fill-rule:nonzero}
   ]]>
  </style>
 </defs>
 <g id="Layer_x0020_1">
  <metadata id="CorelCorpID_0Corel-Layer"/>
  <g id="_1992292990880">
   <path class="fil0" d="M60.41 5.34c5.2,0 9.62,0.5 13.28,1.49 3.66,0.99 6.63,2.56 8.92,4.72 2.29,2.15 3.95,4.94 4.97,8.36 1.03,3.42 1.54,7.59 1.54,12.51l0 15.9c0,8.34 -1.56,14.61 -4.67,18.82 -3.11,4.2 -8.29,6.79 -15.54,7.75l11.8 16.31c0.27,0.33 0.36,0.85 0.26,1.53 -0.1,0.69 -0.63,1.03 -1.59,1.03l-13.13 0c-0.89,0 -1.5,-0.1 -1.85,-0.31 -0.34,-0.2 -0.69,-0.51 -1.02,-0.92l-11.8 -17.13 -22.87 0c-5.2,0 -9.61,-0.48 -13.23,-1.44 -3.62,-0.95 -6.58,-2.51 -8.87,-4.66 -2.29,-2.16 -3.96,-4.96 -5.02,-8.41 -1.06,-3.46 -1.59,-7.65 -1.59,-12.57l0 -15.9c0,-4.92 0.53,-9.09 1.59,-12.51 1.06,-3.42 2.74,-6.2 5.02,-8.36 2.29,-2.15 5.25,-3.73 8.87,-4.72 3.63,-0.99 8.04,-1.49 13.23,-1.49l31.69 0zm-44.72 41.85c0,2.67 0.22,4.91 0.67,6.72 0.44,1.81 1.18,3.24 2.21,4.31 1.02,1.06 2.41,1.81 4.15,2.25 1.74,0.44 3.95,0.67 6.62,0.67l30.46 0c2.67,0 4.87,-0.22 6.61,-0.67 1.74,-0.44 3.13,-1.2 4.15,-2.25 1.02,-1.07 1.76,-2.5 2.2,-4.31 0.44,-1.81 0.67,-4.06 0.67,-6.72l0 -13.65c0,-2.67 -0.22,-4.9 -0.67,-6.71 -0.44,-1.81 -1.18,-3.25 -2.2,-4.31 -1.02,-1.06 -2.41,-1.81 -4.15,-2.26 -1.74,-0.44 -3.95,-0.67 -6.61,-0.67l-30.46 0c-2.67,0 -4.87,0.22 -6.62,0.67 -1.74,0.44 -3.13,1.2 -4.15,2.26 -1.03,1.06 -1.76,2.5 -2.21,4.31 -0.44,1.81 -0.67,4.05 -0.67,6.71l0 13.65zm138.36 -26.36c4.58,0 8.45,0.39 11.59,1.18 3.15,0.78 5.66,2.02 7.54,3.69 1.88,1.67 3.23,3.83 4.05,6.46 0.82,2.63 1.23,5.79 1.23,9.48l0 14.78c0,3.69 -0.41,6.85 -1.23,9.48 -0.82,2.63 -2.17,4.79 -4.05,6.46 -1.88,1.67 -4.39,2.89 -7.54,3.65 -3.14,0.75 -7.01,1.12 -11.59,1.12l-29.02 0c-4.65,0 -8.53,-0.37 -11.64,-1.12 -3.11,-0.76 -5.61,-1.97 -7.49,-3.65 -1.88,-1.67 -3.23,-3.83 -4.05,-6.46 -0.81,-2.63 -1.23,-5.8 -1.23,-9.48l0 -14.78c0,-3.69 0.41,-6.85 1.23,-9.48 0.82,-2.63 2.17,-4.79 4.05,-6.46 1.88,-1.67 4.38,-2.91 7.49,-3.69 3.11,-0.78 7,-1.18 11.64,-1.18l29.02 0zm-38.76 33.02c0,2.19 0.17,4 0.51,5.44 0.34,1.43 0.94,2.58 1.79,3.43 0.86,0.86 2,1.48 3.44,1.85 1.44,0.37 3.25,0.56 5.44,0.56l26.15 0c2.26,0 4.1,-0.19 5.54,-0.56 1.44,-0.37 2.58,-0.99 3.44,-1.85 0.86,-0.85 1.45,-2 1.8,-3.43 0.34,-1.44 0.52,-3.25 0.52,-5.44l0 -9.74c0,-2.12 -0.17,-3.9 -0.52,-5.33 -0.34,-1.44 -0.94,-2.6 -1.8,-3.48 -0.85,-0.89 -2,-1.51 -3.44,-1.85 -1.43,-0.33 -3.28,-0.51 -5.54,-0.51l-26.15 0c-2.19,0 -4,0.17 -5.44,0.51 -1.43,0.34 -2.58,0.96 -3.44,1.85 -0.85,0.89 -1.45,2.05 -1.79,3.48 -0.34,1.44 -0.51,3.22 -0.51,5.33l0 9.74zm128.81 -33.02c4.58,0 8.45,0.39 11.59,1.18 3.15,0.78 5.66,2.02 7.54,3.69 1.88,1.67 3.23,3.83 4.05,6.46 0.82,2.63 1.23,5.79 1.23,9.48l0 33.24c0,1.5 -0.76,2.25 -2.26,2.25l-10.05 0c-1.51,0 -2.26,-0.75 -2.26,-2.25l0 -29.75c0,-2.12 -0.14,-3.91 -0.41,-5.38 -0.28,-1.47 -0.81,-2.63 -1.59,-3.49 -0.78,-0.85 -1.86,-1.47 -3.23,-1.84 -1.37,-0.38 -3.15,-0.57 -5.33,-0.57l-27.28 0c-2.19,0 -4,0.19 -5.44,0.57 -1.43,0.37 -2.58,0.99 -3.44,1.84 -0.85,0.86 -1.45,2.02 -1.79,3.49 -0.35,1.47 -0.52,3.26 -0.52,5.38l0 29.75c0,1.5 -0.75,2.25 -2.26,2.25l-10.05 0c-1.57,0 -2.36,-0.75 -2.36,-2.25l0 -33.24c0,-3.69 0.41,-6.85 1.23,-9.48 0.82,-2.63 2.17,-4.79 4.05,-6.46 1.88,-1.67 4.38,-2.91 7.49,-3.69 3.11,-0.78 6.99,-1.18 11.64,-1.18l29.43 0zm82.67 0c4.58,0 8.44,0.39 11.59,1.18 3.15,0.78 5.66,2.02 7.54,3.69 1.88,1.67 3.23,3.83 4.05,6.46 0.82,2.63 1.23,5.79 1.23,9.48l0 27.28c0,1.64 -0.12,2.99 -0.36,4.06 -0.24,1.06 -0.65,1.9 -1.23,2.51 -0.58,0.62 -1.35,1.04 -2.31,1.28 -0.96,0.23 -2.19,0.35 -3.69,0.35l-48.82 0c-3.01,0 -5.52,-0.29 -7.54,-0.87 -2.02,-0.58 -3.64,-1.45 -4.87,-2.61 -1.23,-1.16 -2.1,-2.67 -2.61,-4.52 -0.52,-1.84 -0.77,-4.03 -0.77,-6.56l0 -4.92c0,-2.12 0.26,-4.02 0.77,-5.7 0.51,-1.67 1.38,-3.09 2.61,-4.25 1.23,-1.17 2.85,-2.04 4.87,-2.62 2.02,-0.58 4.53,-0.87 7.54,-0.87l41.74 0 0 -1.95c0,-1.64 -0.17,-3.04 -0.51,-4.2 -0.35,-1.16 -0.93,-2.1 -1.75,-2.82 -0.82,-0.71 -1.94,-1.24 -3.38,-1.59 -1.44,-0.33 -3.28,-0.51 -5.54,-0.51l-42.87 0c-1.23,0 -1.85,-0.62 -1.85,-1.85l0 -8.62c0,-1.23 0.61,-1.84 1.85,-1.84l44.31 0zm6.77 45.02c1.09,0 1.86,-0.25 2.31,-0.77 0.44,-0.52 0.67,-1.42 0.67,-2.72l0 -9.03 -37.54 0c-2.12,0 -3.61,0.43 -4.46,1.29 -0.86,0.85 -1.28,2.1 -1.28,3.74l0 2.16c0,1.84 0.43,3.19 1.28,4.05 0.85,0.85 2.34,1.28 4.46,1.28l34.56 0zm41.03 -45.02c1.5,0 2.26,0.79 2.26,2.35l0 51.7c0,1.5 -0.76,2.25 -2.26,2.25l-10.05 0c-1.51,0 -2.26,-0.75 -2.26,-2.25l0 -51.7c0,-1.57 0.75,-2.35 2.26,-2.35l10.05 0zm0 -20.83c1.5,0 2.26,0.76 2.26,2.26l0 9.74c0,1.57 -0.76,2.35 -2.26,2.35l-10.05 0c-1.57,0 -2.36,-0.78 -2.36,-2.35l0 -9.74c0,-1.5 0.78,-2.26 2.36,-2.26l10.05 0zm68.82 20.83c4.58,0 8.44,0.39 11.59,1.18 3.15,0.78 5.66,2.02 7.54,3.69 1.88,1.67 3.23,3.83 4.05,6.46 0.82,2.63 1.23,5.79 1.23,9.48l0 33.24c0,1.5 -0.76,2.25 -2.26,2.25l-10.05 0c-1.5,0 -2.26,-0.75 -2.26,-2.25l0 -29.75c0,-2.12 -0.14,-3.91 -0.41,-5.38 -0.28,-1.47 -0.8,-2.63 -1.59,-3.49 -0.79,-0.85 -1.86,-1.47 -3.23,-1.84 -1.37,-0.38 -3.15,-0.57 -5.34,-0.57l-27.28 0c-2.19,0 -4,0.19 -5.44,0.57 -1.44,0.37 -2.58,0.99 -3.43,1.84 -0.85,0.86 -1.45,2.02 -1.8,3.49 -0.34,1.47 -0.51,3.26 -0.51,5.38l0 29.75c0,1.5 -0.76,2.25 -2.26,2.25l-10.05 0c-1.57,0 -2.36,-0.75 -2.36,-2.25l0 -33.24c0,-3.69 0.41,-6.85 1.23,-9.48 0.82,-2.63 2.17,-4.79 4.05,-6.46 1.88,-1.67 4.37,-2.91 7.49,-3.69 3.11,-0.78 6.99,-1.18 11.64,-1.18l29.44 0z"/>
   <path class="fil1" d="M542.97 5.34c7.04,0 12.05,1.41 15.02,4.21 2.98,2.8 4.46,7.04 4.46,12.71l0 4.93c0,5.75 -2.19,10.09 -6.56,13.03 4.72,2.73 7.08,7.15 7.08,13.23l0 5.95c0,2.73 -0.31,5.2 -0.93,7.39 -0.61,2.19 -1.62,4.05 -3.02,5.59 -1.41,1.54 -3.27,2.72 -5.59,3.54 -2.33,0.81 -5.2,1.22 -8.61,1.22l-60.92 0c-2.05,0 -3.07,-1.02 -3.07,-3.08l0 -65.63c0,-2.06 1.02,-3.08 3.07,-3.08l59.08 0zm-46.46 41.02l0 15.28c0,0.89 0.44,1.33 1.33,1.33l42.05 0c2.74,0 4.68,-0.5 5.85,-1.49 1.16,-0.99 1.74,-2.58 1.74,-4.77l0 -3.9c0,-2.12 -0.63,-3.73 -1.9,-4.82 -1.27,-1.09 -3.61,-1.64 -7.02,-1.64l-42.05 0zm0 -11.18l42.05 0c3.41,0 5.74,-0.52 6.97,-1.54 1.23,-1.02 1.85,-2.53 1.85,-4.51l0 -3.49c0,-2.11 -0.6,-3.67 -1.8,-4.67 -1.2,-0.99 -3.13,-1.49 -5.8,-1.49l-41.95 0c-0.89,0 -1.33,0.45 -1.33,1.34l0 14.36zm90.66 -14.36c1.5,0 2.26,0.79 2.26,2.35l0 51.7c0,1.5 -0.75,2.25 -2.26,2.25l-10.05 0c-1.5,0 -2.25,-0.75 -2.25,-2.25l0 -51.7c0,-1.57 0.75,-2.35 2.25,-2.35l10.05 0zm0 -20.83c1.5,0 2.26,0.76 2.26,2.26l0 9.74c0,1.57 -0.75,2.35 -2.26,2.35l-10.05 0c-1.57,0 -2.35,-0.78 -2.35,-2.35l0 -9.74c0,-1.5 0.78,-2.26 2.35,-2.26l10.05 0zm72.41 20.83c2.46,0 4.26,0.53 5.39,1.59 1.13,1.06 1.69,2.68 1.69,4.87l0 7.59c0,1.09 -0.07,2 -0.2,2.72 -0.13,0.72 -0.38,1.35 -0.72,1.9 -0.34,0.54 -0.82,1.02 -1.44,1.44 -0.61,0.41 -1.37,0.81 -2.26,1.23l-45.53 20c-0.35,0.14 -0.57,0.33 -0.67,0.56 -0.1,0.24 -0.15,0.53 -0.15,0.87l0 0.72c0,0.48 0.31,0.71 0.93,0.71l47.69 0c1.23,0 1.85,0.62 1.85,1.85l0 8.41c0,1.23 -0.62,1.84 -1.85,1.84l-56.72 0c-2.46,0 -4.26,-0.51 -5.38,-1.54 -1.13,-1.03 -1.7,-2.63 -1.7,-4.82l0 -7.59c0,-2.12 0.31,-3.67 0.93,-4.67 0.61,-0.99 1.84,-1.89 3.69,-2.72l45.54 -20c0.54,-0.2 0.82,-0.65 0.82,-1.33l0 -0.72c0,-0.54 -0.31,-0.81 -0.92,-0.81l-47.7 0c-1.23,0 -1.84,-0.62 -1.84,-1.85l0 -8.41c0,-1.23 0.61,-1.84 1.84,-1.84l56.72 0z"/>
  </g>
 </g>
</svg>
